<?xml version="1.0" encoding="UTF-8"?>
<svg width="180px" height="40px" viewBox="0 0 180 40" version="1.1" xmlns="http://www.w3.org/2000/svg" xmlns:xlink="http://www.w3.org/1999/xlink">
    <!-- Generator: Sketch 51.2 (57519) - http://www.bohemiancoding.com/sketch -->
    <title>logo</title>
    <desc>Created with Sketch.</desc>
    <defs>
        <polygon id="path-1" points="0.0242696629 0.178382022 31.5505618 0.178382022 31.5505618 38.9422921 0.0242696629 38.9422921"></polygon>
    </defs>
    <g id="Symbols" stroke="none" stroke-width="1" fill="none" fill-rule="evenodd">
        <g id="logo/serial">
            <g id="logo">
                <g id="Group-3">
                    <mask id="mask-2" fill="white">
                        <use xlink:href="#path-1"></use>
                    </mask>
                    <g id="Clip-2"></g>
                    <path d="M31.5505618,36.0299326 C31.5505618,37.6382022 30.2464719,38.9422921 28.6382022,38.9422921 L2.91235955,38.9422921 C1.30408989,38.9422921 0,37.6382022 0,36.0299326 L0,3.09074157 C0,1.48247191 1.30408989,0.178382022 2.91235955,0.178382022 L28.6382022,0.178382022 C30.2464719,0.178382022 31.5505618,1.48247191 31.5505618,3.09074157 L31.5505618,36.0299326" id="Fill-1" fill="#070808" mask="url(#mask-2)"></path>
                </g>
                <path d="M62.6966292,36.0303371 C62.6966292,37.6386067 61.3925393,38.9426966 59.7842697,38.9426966 L37.4294831,38.9426966 C35.820809,38.9426966 34.5171236,37.6386067 34.5171236,36.0303371 L34.5171236,3.09074157 C34.5171236,1.48247191 35.820809,0.178382022 37.4294831,0.178382022 L59.7842697,0.178382022 C61.3925393,0.178382022 62.6966292,1.48247191 62.6966292,3.09074157 L62.6966292,36.0303371" id="Fill-4" fill="#070808"></path>
                <path d="M99.3709213,36.0974831 C99.3709213,37.7057528 98.0668315,39.0098427 96.4585618,39.0098427 L68.508,39.0098427 C66.8997303,39.0098427 65.5956404,37.7057528 65.5956404,36.0974831 L65.5956404,3.09074157 C65.5956404,1.48247191 66.8997303,0.178382022 68.508,0.178382022 L96.4585618,0.178382022 C98.0668315,0.178382022 99.3709213,1.48247191 99.3709213,3.09074157 L99.3709213,36.0974831" id="Fill-5" fill="#070808"></path>
                <path d="M113.932719,36.0974831 C113.932719,37.7057528 112.628629,39.0098427 111.02036,39.0098427 L105.249438,39.0098427 C103.641169,39.0098427 102.337079,37.7057528 102.337079,36.0974831 L102.337079,3.09074157 C102.337079,1.48247191 103.641169,0.178382022 105.249438,0.178382022 L111.02036,0.178382022 C112.628629,0.178382022 113.932719,1.48247191 113.932719,3.09074157 L113.932719,36.0974831" id="Fill-6" fill="#070808"></path>
                <path d="M151.416,36.0303371 C151.416,37.6386067 150.11191,38.9426966 148.50364,38.9426966 L119.81164,38.9426966 C118.203371,38.9426966 116.899281,37.6386067 116.899281,36.0303371 L116.899281,3.09074157 C116.899281,1.48247191 118.203371,0.178382022 119.81164,0.178382022 L148.50364,0.178382022 C150.11191,0.178382022 151.416,1.48247191 151.416,3.09074157 L151.416,36.0303371" id="Fill-7" fill="#070808"></path>
                <path d="M179.663056,36.0303371 C179.663056,37.6386067 178.358966,38.9426966 176.750697,38.9426966 L157.294517,38.9426966 C155.686247,38.9426966 154.382157,37.6386067 154.382157,36.0303371 L154.382157,3.09074157 C154.382157,1.48247191 155.686247,0.178382022 157.294517,0.178382022 L176.750697,0.178382022 C178.358966,0.178382022 179.663056,1.48247191 179.663056,3.09074157 L179.663056,36.0303371" id="Fill-8" fill="#070808"></path>
                <path d="M22.9777079,22.4502472 C21.9814382,21.8115506 20.7542022,21.4111011 19.4060225,21.1797303 C17.6242247,20.8229663 16.1688539,20.8367191 16.1490337,20.8330787 L13.3458876,20.8330787 C10.9338876,20.8330787 10.1414831,20.0046742 10.0237753,18.9873708 C9.73294382,16.4718202 12.9490787,15.587191 15.6110562,15.587191 C18.9355955,15.587191 20.7129438,17.0765393 22.5250787,18.1533034 L24.7942921,14.8728539 C23.9448539,14.2503371 20.3420225,11.5547865 15.5564494,11.5547865 C11.6482247,11.5547865 5.9327191,14.3332584 5.9327191,18.8356854 C5.9327191,22.6872809 9.65730337,24.4998202 12.8313708,24.4998202 L16.0030112,24.4998202 C18.2253034,24.4998202 21.3399101,24.1632809 22.32,26.3851685 C22.4061573,26.6844944 22.4551011,27.0177978 22.4551011,27.3931685 C22.4551011,29.9985169 18.5472809,31.0178427 15.6871011,31.0178427 C10.5900674,31.0178427 8.52269663,28.6677303 7.10696629,27.7046292 L6.69802247,28.0977978 C6.59285393,28.0160899 6.48808989,27.935191 6.38251685,27.8563146 L4.23020225,29.9236854 C6.33721348,31.9983371 9.08413483,34.6275506 15.8088539,34.6275506 C20.7550112,34.6275506 25.3375281,32.3911011 25.8710562,28.3073258 C26.2617978,25.3148764 24.842427,23.5249888 22.9777079,22.4502472" id="Fill-9" fill="#F2EEC4"></path>
                <path d="M5.53510112,29.7756404 C6.91968539,31.1323146 9.70179775,33.6717303 15.4893034,33.6717303 C20.2773034,33.6717303 25.1089888,31.7390562 25.1089888,27.4218876 C25.1089888,23.3114157 22.0732584,21.3132135 15.8286742,21.3132135 L13.0255281,21.3132135 C10.3518202,21.3132135 8.99635955,20.3577978 8.99635955,18.4732584 C8.99635955,15.8019775 12.3326292,14.5856629 15.4322697,14.5856629 C18.6941124,14.5856629 20.3205843,15.5867865 21.8932584,16.5551461 C21.995191,16.6178427 22.0967191,16.6801348 22.1990562,16.7428315 L23.4796854,14.9161348 C21.0155056,13.2002697 18.2867865,12.3362697 15.3473258,12.3362697 C12.022382,12.3362697 6.74696629,14.002382 6.74696629,18.4732584 C6.74696629,21.9304719 9.79604494,23.505573 12.6291236,23.505573 L15.8003596,23.505573 C18.4408989,23.505573 22.8595955,23.505573 22.8595955,27.3931685 C22.8595955,30.1615281 19.1414831,31.4223371 15.6871011,31.4223371 C11.2542472,31.4223371 9.04651685,29.7044494 7.58548315,28.5678202 C7.42692135,28.4444494 7.28170787,28.331191 7.14498876,28.2292584 L5.53510112,29.7756404 Z M15.4893034,34.4807191 C9.15775281,34.4807191 6.228,31.5942472 4.82035955,30.2068315 L4.37379775,29.7691685 L7.0632809,27.1856629 L7.33469663,27.3701124 C7.56808989,27.5290787 7.81806742,27.7236404 8.08220225,27.9291236 C9.45586517,28.9977978 11.5317303,30.6133483 15.6871011,30.6133483 C18.1476404,30.6133483 22.0506067,29.739236 22.0506067,27.3931685 C22.0506067,24.5499775 19.0941573,24.3145618 15.8003596,24.3145618 L12.6291236,24.3145618 C9.40651685,24.3145618 5.93797753,22.4862472 5.93797753,18.4732584 C5.93797753,13.9615281 10.7858427,11.5272809 15.3473258,11.5272809 C18.5909663,11.5272809 21.5906966,12.5215281 24.264,14.4821124 L24.5831461,14.7163146 L24.372,15.0524494 L22.429618,17.823236 L22.1068315,17.6315056 C21.8916404,17.5036854 21.6800899,17.3738427 21.4693483,17.244 C19.9241798,16.2930337 18.4651685,15.3946517 15.4322697,15.3946517 C13.1703371,15.3946517 9.80534831,16.2145618 9.80534831,18.4732584 C9.80534831,19.3449438 10.1390562,20.5042247 13.0255281,20.5042247 L15.8286742,20.5042247 C22.5234607,20.5042247 25.9179775,22.8316854 25.9179775,27.4218876 C25.9179775,32.2976629 20.6801798,34.4807191 15.4893034,34.4807191 Z" id="Fill-10" fill="#D82333"></path>
                <polyline id="Fill-11" fill="#F2EEC4" points="57.7351011 12.0288539 57.7383371 16.1765393 43.4350112 16.1765393 43.4200449 21.0721348 49.9477753 21.0721348 49.9477753 24.1305169 42.7271461 24.1305169 42.7271461 30.6153708 57.9814382 30.6153708 57.9814382 34.2469213 39.2557753 34.2550112 39.2557753 12.0393708 57.7351011 12.0288539"></polyline>
                <path d="M40.0732584,33.2692584 L57.1894382,33.2692584 L57.1894382,31.0198652 L42.3226517,31.0198652 L42.3226517,23.7260225 L49.5432809,23.7260225 L49.5432809,21.4766292 L42.3226517,21.4766292 L42.3226517,15.0892584 L56.6510562,15.0892584 L56.6510562,12.8398652 L40.0732584,12.8398652 L40.0732584,33.2692584 Z M57.998427,34.0782472 L39.2642697,34.0782472 L39.2642697,12.0308764 L57.4600449,12.0308764 L57.4600449,15.8982472 L43.1316404,15.8982472 L43.1316404,20.6676404 L50.3522697,20.6676404 L50.3522697,24.5350112 L43.1316404,24.5350112 L43.1316404,30.2108764 L57.998427,30.2108764 L57.998427,34.0782472 Z" id="Fill-12" fill="#D82333"></path>
                <path d="M76.6820225,21.7516854 L76.6820225,15.4937528 L85.4826067,15.4937528 C87.2385169,15.4937528 89.0793708,16.0883596 89.0793708,18.4951011 C89.0793708,20.2821573 88.1041348,21.4111011 86.3591461,21.6849438 C86.3275955,21.6853483 86.2980674,21.6881798 86.2665169,21.6881798 L81.5707416,21.6881798 L81.5703371,21.7516854 L76.6820225,21.7516854 Z M92.806382,18.3806292 C92.6797753,13.8300674 89.6966292,12.2120899 86.2665169,12.0563596 L81.5962247,12.0563596 L81.5950112,12.4353708 L72.9663371,12.4353708 L72.9663371,34.0782472 L76.6569438,34.0782472 L76.6569438,24.8104719 L81.5622472,24.8104719 L81.5622472,24.8501124 L83.9443146,24.8501124 L88.1728989,33.6737528 L88.7990562,33.6737528 L88.956809,34.0135281 L92.553573,34.0802697 L88.1797753,25.1308315 C89.9494382,24.7514157 92.7558202,23.184 92.806382,18.3806292 Z" id="Fill-13" fill="#F2EEC4"></path>
                <path d="M76.4292135,21.347191 L85.4826067,21.347191 C87.5410787,21.347191 88.6748764,20.3343371 88.6748764,18.4951011 C88.6748764,16.7719551 87.6005393,15.8982472 85.4826067,15.8982472 L76.4292135,15.8982472 L76.4292135,21.347191 Z M85.4826067,22.1561798 L75.6202247,22.1561798 L75.6202247,15.0892584 L85.4826067,15.0892584 C88.0628764,15.0892584 89.4838652,16.2991011 89.4838652,18.4951011 C89.4838652,20.7873708 87.9880449,22.1561798 85.4826067,22.1561798 Z M88.4277303,33.2692584 L91.0075955,33.2692584 L86.6422921,24.3404494 L87.2348764,24.2935281 C88.9054382,24.1612584 91.7328539,22.7908315 91.7328539,18.4951011 C91.7328539,14.325573 88.5041798,12.8398652 85.4826067,12.8398652 L73.3708315,12.8398652 L73.3708315,33.2692584 L75.6202247,33.2692584 L75.6202247,24.4059775 L84.1801348,24.4059775 L88.4277303,33.2692584 Z M92.304,34.0782472 L87.9184719,34.0782472 L83.6704719,25.2149663 L76.4292135,25.2149663 L76.4292135,34.0782472 L72.5618427,34.0782472 L72.5618427,12.0308764 L85.4826067,12.0308764 C88.8953258,12.0308764 92.5418427,13.7293483 92.5418427,18.4951011 C92.5418427,22.9259326 89.8317303,24.625618 87.874382,25.0187865 L92.304,34.0782472 Z" id="Fill-14" fill="#D82333"></path>
                <polygon id="Fill-15" fill="#F2EEC4" points="106.25582 34.1963596 110.274876 34.1963596 110.274876 12.0563596 106.25582 12.0563596"></polygon>
                <path d="M107.064809,33.2692584 L109.314202,33.2692584 L109.314202,12.8402697 L107.064809,12.8402697 L107.064809,33.2692584 Z M106.25582,34.0778427 L110.123191,34.0778427 L110.123191,12.0308764 L106.25582,12.0308764 L106.25582,34.0778427 Z" id="Fill-16" fill="#D82333"></path>
                <path d="M133.90018,16.9017978 L130.898022,23.6208539 L136.948854,23.6208539 L133.90018,16.9017978 Z M145.630112,34.0782472 L141.501034,34.0782472 L138.294607,26.679236 L129.481888,26.679236 L126.338966,33.6737528 L122.997438,33.6737528 L132.597303,12.4353708 L135.995056,12.4353708 L145.630112,34.0782472 Z" id="Fill-17" fill="#F2EEC4"></path>
                <path d="M131.524989,23.2163596 L136.954112,23.2163596 L134.239551,17.2120449 L131.524989,23.2163596 Z M138.208045,24.0253483 L130.271461,24.0253483 L134.239551,15.2482247 L138.208045,24.0253483 Z M142.26391,33.2692584 L144.830427,33.2692584 L135.732539,12.8398652 L132.858202,12.8398652 L123.624404,33.2692584 L126.077258,33.2692584 L129.220584,26.2747416 L139.234247,26.2747416 L142.26391,33.2692584 Z M146.07627,34.0782472 L141.733213,34.0782472 L138.703146,27.0837303 L129.743596,27.0837303 L126.60027,34.0782472 L122.370472,34.0782472 L132.336,12.0308764 L136.257573,12.0308764 L146.07627,34.0782472 Z" id="Fill-18" fill="#D82333"></path>
                <polyline id="Fill-19" fill="#F2EEC4" points="159.155596 12.0308764 162.845798 12.0308764 162.845798 30.6153708 175.098337 30.6153708 175.098337 33.6737528 159.155596 33.6737528 159.155596 12.0308764"></polyline>
                <path d="M159.56009,33.2692584 L174.693843,33.2692584 L174.693843,31.0198652 L161.809079,31.0198652 L161.809079,12.8398652 L159.56009,12.8398652 L159.56009,33.2692584 Z M175.502831,34.0782472 L158.751101,34.0782472 L158.751101,12.0308764 L162.618067,12.0308764 L162.618067,30.2108764 L175.502831,30.2108764 L175.502831,34.0782472 Z" id="Fill-20" fill="#D82333"></path>
            </g>
        </g>
    </g>
</svg>